HIERARCHY
ROOT root
{
	OFFSET 0.000000 0.000000 0.000000
	CHANNELS 6 Xposition Yposition Zposition Zrotation Yrotation Xrotation
	JOINT lhip
	{
		OFFSET 0.058581 -0.082280 -0.017664
		CHANNELS 3 Zrotation Yrotation Xrotation
		JOINT lknee
		{
			OFFSET 0.043451 -0.386469 0.008037
			CHANNELS 3 Zrotation Yrotation Xrotation
			JOINT lankle
			{
				OFFSET -0.014790 -0.426874 -0.037428
				CHANNELS 3 Zrotation Yrotation Xrotation
				JOINT ltoe
				{
					OFFSET 0.041054 -0.060286 0.122042
					CHANNELS 3 Zrotation Yrotation Xrotation
					End Site
					{
						OFFSET 0.000000 0.000000 0.000000
					}
				}
			}
		}
	}
	JOINT rhip
	{
		OFFSET -0.060310 -0.090513 -0.013543
		CHANNELS 3 Zrotation Yrotation Xrotation
		JOINT rknee
		{
			OFFSET -0.043257 -0.383688 -0.004843
			CHANNELS 3 Zrotation Yrotation Xrotation
			JOINT rankle
			{
				OFFSET 0.019056 -0.420046 -0.034562
				CHANNELS 3 Zrotation Yrotation Xrotation
				JOINT rtoe
				{
					OFFSET -0.034840 -0.062106 0.130323
					CHANNELS 3 Zrotation Yrotation Xrotation
					End Site
					{
						OFFSET 0.000000 0.000000 0.000000
					}
				}
			}
		}
	}
	JOINT lowerback
	{
		OFFSET 0.004439 0.124404 -0.038385
		CHANNELS 3 Zrotation Yrotation Xrotation
		JOINT upperback
		{
			OFFSET 0.004488 0.137956 0.026820
			CHANNELS 3 Zrotation Yrotation Xrotation
			JOINT chest
			{
				OFFSET -0.002265 0.056032 0.002855
				CHANNELS 3 Zrotation Yrotation Xrotation
				JOINT lowerneck
				{
					OFFSET -0.013390 0.211636 -0.033468
					CHANNELS 3 Zrotation Yrotation Xrotation
					JOINT upperneck
					{
						OFFSET 0.010113 0.088937 0.050410
						CHANNELS 3 Zrotation Yrotation Xrotation
						End Site
						{
							OFFSET 0.000000 0.000000 0.000000
						}
					}
				}
				JOINT lclavicle
				{
					OFFSET 0.071702 0.114000 -0.018898
					CHANNELS 3 Zrotation Yrotation Xrotation
					JOINT lshoulder
					{
						OFFSET 0.122921 0.045205 -0.019046
						CHANNELS 3 Zrotation Yrotation Xrotation
						JOINT lelbow
						{
							OFFSET 0.255332 -0.015649 -0.022946
							CHANNELS 3 Zrotation Yrotation Xrotation
							JOINT lwrist
							{
								OFFSET 0.265709 0.012698 -0.007375
								CHANNELS 3 Zrotation Yrotation Xrotation
								End Site
								{
									OFFSET 0.000000 0.000000 0.000000
								}
							}
						}
					}
				}
				JOINT rclavicle
				{
					OFFSET -0.082954 0.112472 -0.023707
					CHANNELS 3 Zrotation Yrotation Xrotation
					JOINT rshoulder
					{
						OFFSET -0.113228 0.046853 -0.008472
						CHANNELS 3 Zrotation Yrotation Xrotation
						JOINT relbow
						{
							OFFSET -0.260127 -0.014369 -0.031269
							CHANNELS 3 Zrotation Yrotation Xrotation
							JOINT rwrist
							{
								OFFSET -0.269108 0.006794 -0.006027
								CHANNELS 3 Zrotation Yrotation Xrotation
								End Site
								{
									OFFSET 0.000000 0.000000 0.000000
								}
							}
						}
					}
				}
			}
		}
	}
}
MOTION
Frames: 5
Frame Time: 0.033333
0.092489 -0.493559 0.991188 -178.140587 -3.009072 88.936845 2.121924 -1.960752 -0.032399 -4.196514 -10.929543 7.225126 0.125031 12.379762 -21.255788 0.000000 -0.000000 0.000000 -4.056481 -4.467385 -0.390241 1.174882 0.974142 8.298867 5.038363 -11.145494 -18.698446 0.000000 -0.000000 0.000000 0.286813 0.812465 2.933129 -1.306125 -2.818609 3.943964 -1.354315 0.114047 7.207502 0.914732 2.861206 8.237770 1.984889 -0.253630 -3.476233 -15.269341 3.306684 7.098049 -31.987938 7.640822 29.030179 -89.536498 -51.614921 110.765741 44.223918 -23.562726 1.105496 13.193863 3.071117 4.962544 33.791053 -6.681908 30.125146 83.458920 51.714509 101.940508 -46.271852 27.343006 5.033293 
0.083182 -0.495265 0.991931 -178.456939 -2.969957 89.073929 1.601680 -2.041746 0.880258 -3.864280 -11.279479 5.129077 1.017998 12.620230 -19.950731 0.000000 -0.000000 0.000000 -4.476998 -3.740380 -0.958660 1.008050 1.191197 8.727350 5.868858 -11.857955 -18.484701 0.000000 -0.000000 0.000000 0.005334 0.854619 3.063811 -1.074375 -2.617340 3.510696 -1.326534 0.157717 7.178773 1.015722 2.647567 7.472953 1.379568 -0.397970 -2.505245 -15.347258 3.467128 7.344834 -31.888568 7.170492 28.973582 -89.217267 -51.669749 111.069846 44.160885 -24.046880 0.572507 13.337061 2.723957 4.955273 33.719358 -6.859996 30.467949 82.790262 51.916439 102.478358 -46.504308 29.598165 4.699014 
0.073564 -0.496213 0.992448 -178.649291 -2.797658 89.366965 1.314992 -1.962726 1.135314 -3.945747 -11.000734 3.892386 1.276278 12.707622 -18.929971 0.000000 -0.000000 0.000000 -4.729546 -3.468429 -1.871476 0.774655 1.198812 9.442926 6.089049 -12.177986 -18.365932 0.000000 -0.000000 0.000000 -0.158096 0.796598 2.930298 -0.861881 -2.460322 3.198732 -1.204955 0.152397 7.240377 1.149895 2.269870 6.422424 0.391585 -0.538049 -1.702441 -15.530167 3.885493 7.217616 -31.540641 6.725568 28.980920 -89.225953 -51.489019 111.212187 43.649120 -24.492300 0.354856 13.645104 2.015201 4.837157 33.173664 -6.702390 30.702851 82.606202 51.780176 103.265331 -46.215292 31.623978 4.555228 
0.059115 -0.497410 0.992765 -179.311602 -2.617844 89.707273 0.756623 -1.444998 1.297398 -4.220150 -10.194855 2.880514 1.932882 12.462176 -18.112414 0.000000 -0.000000 0.000000 -5.275073 -3.479437 -3.542330 0.473630 1.092966 11.160878 6.381756 -11.841256 -18.337247 0.000000 -0.000000 0.000000 -0.331574 0.743066 3.050811 -0.816768 -2.217702 2.696546 -1.177431 0.211447 7.052319 0.948615 2.110620 6.441487 0.452754 -0.226085 -2.326397 -15.615639 4.526662 7.271676 -30.870686 6.543308 29.021890 -89.713202 -51.538922 111.984507 43.019620 -24.874609 -0.426548 13.904356 1.256349 4.835430 32.907169 -6.542839 30.726452 82.453562 51.124484 104.786758 -45.709445 34.201448 4.264031 
0.054142 -0.498407 0.992514 -179.494687 -2.509275 89.879347 0.575218 -1.390058 1.246963 -4.209229 -9.953040 2.584711 2.158924 12.271317 -17.899595 0.000000 -0.000000 0.000000 -5.425247 -3.420140 -4.280524 0.408930 1.018736 11.867902 6.419412 -11.814115 -18.365838 0.000000 -0.000000 0.000000 -0.281851 0.781680 2.944695 -0.752284 -2.101023 2.688346 -1.241148 0.258433 7.090186 0.914150 2.017786 6.300027 0.407131 -0.265028 -2.525204 -15.564030 4.464494 7.475414 -30.802263 6.271347 28.971293 -89.607550 -51.707607 112.163849 42.775539 -25.232930 -0.555132 13.971196 0.931229 4.778160 32.730967 -6.491454 30.745555 82.441230 50.866199 105.782535 -45.637653 35.719440 3.712679 
